<?xml version="1.0" encoding="utf-8"?>
<!-- Generator: Adobe Illustrator 16.0.0, SVG Export Plug-In . SVG Version: 6.00 Build 0)  -->
<!DOCTYPE svg PUBLIC "-//W3C//DTD SVG 1.1//EN" "http://www.w3.org/Graphics/SVG/1.1/DTD/svg11.dtd">
<svg version="1.1" id="图层_1" xmlns="http://www.w3.org/2000/svg" xmlns:xlink="http://www.w3.org/1999/xlink" x="0px" y="0px"
	 width="100px" height="100px" viewBox="0 0 100 100" enable-background="new 0 0 100 100" xml:space="preserve">
<g>
	<path opacity="0.21" fill="#FFFFFF" enable-background="new    " d="M49.933,4.824c-0.868,45.255-1.63,45.979-46.834,47.044
		c45.211,0.822,45.957,1.608,47.009,46.808C50.961,53.459,51.715,52.707,96.9,51.63C51.704,50.783,50.965,50.055,49.933,4.824z"/>
	<path opacity="0.21" fill="#FFFFFF" enable-background="new    " d="M49.908,14.233c-0.657,36.135-1.272,36.777-37.433,37.625
		c36.172,0.688,36.765,1.257,37.612,37.432c0.682-36.199,1.262-36.793,37.449-37.621C51.357,51.014,50.75,50.395,49.908,14.233z"/>
	<path opacity="0.21" fill="#FFFFFF" enable-background="new    " d="M49.939,21.731c-0.524,28.966-1.001,29.396-29.961,30.083
		c28.933,0.574,29.421,1.011,30.12,29.964c0.544-28.905,1.01-29.446,29.956-30.061C51.115,51.146,50.635,50.7,49.939,21.731z"/>
	<path opacity="0.21" fill="#FFFFFF" enable-background="new    " d="M49.948,27.722c-0.4,23.159-0.831,23.578-23.965,24.069
		c23.152,0.452,23.551,0.857,24.089,23.973c0.412-23.14,0.796-23.511,23.948-24.055C50.883,51.278,50.497,50.901,49.948,27.722z"/>
	<path opacity="0.21" fill="#FFFFFF" enable-background="new    " d="M49.953,32.555c-0.345,18.511-0.661,18.84-19.156,19.251
		c18.505,0.331,18.814,0.649,19.262,19.174c0.341-18.544,0.669-18.853,19.166-19.281C50.699,51.362,50.401,51.062,49.953,32.555z"/>
</g>
</svg>
