<?xml version="1.0" encoding="utf-8"?>
<!-- Generator: Adobe Illustrator 16.0.0, SVG Export Plug-In . SVG Version: 6.00 Build 0)  -->
<!DOCTYPE svg PUBLIC "-//W3C//DTD SVG 1.1//EN" "http://www.w3.org/Graphics/SVG/1.1/DTD/svg11.dtd">
<svg version="1.1" id="图层_1" xmlns="http://www.w3.org/2000/svg" xmlns:xlink="http://www.w3.org/1999/xlink" x="0px" y="0px"
	 width="300px" height="300px" viewBox="0 0 300 300" enable-background="new 0 0 300 300" xml:space="preserve">
<g>
	<polygon fill="#7E5F78" points="82.079,197.62 126.773,165.618 108.697,128.998 	"/>
	<polygon fill="#43243D" points="155.929,197.215 126.773,165.618 82.079,197.62 	"/>
	<polygon fill="#876881" points="108.697,128.998 157.031,115.814 126.773,165.618 	"/>
	<polygon fill="#381932" points="187.856,152.797 157.031,115.814 126.773,165.618 	"/>
	<polygon fill="#2B0C25" points="155.929,197.215 187.856,152.797 126.773,165.618 	"/>
	<polygon fill="#200A16" points="196.157,175.975 187.856,152.797 155.929,197.215 	"/>
	<polygon fill="#7D5E77" points="141.29,101.625 157.031,115.814 108.697,128.998 	"/>
	<polygon fill="#44253E" points="218.579,105.619 141.29,101.625 157.031,115.814 	"/>
	<polygon fill="#361730" points="187.856,152.797 218.579,105.619 157.031,115.814 	"/>
	<polygon fill="#2E0F28" points="196.157,175.975 218.579,105.619 187.856,152.797 	"/>
</g>
</svg>
