<?xml version="1.0" encoding="utf-8"?>
<!-- Generator: Adobe Illustrator 16.0.0, SVG Export Plug-In . SVG Version: 6.00 Build 0)  -->
<!DOCTYPE svg PUBLIC "-//W3C//DTD SVG 1.1//EN" "http://www.w3.org/Graphics/SVG/1.1/DTD/svg11.dtd">
<svg version="1.1" id="图层_1" xmlns="http://www.w3.org/2000/svg" xmlns:xlink="http://www.w3.org/1999/xlink" x="0px" y="0px"
	 width="300px" height="300px" viewBox="0 0 300 300" enable-background="new 0 0 300 300" xml:space="preserve">
<g>
	<path fill="#2D0E2A" d="M160.412,133.405l9.785,42.719l6.069-4.38c0-4.477,0-8.959,0-13.438l-5.762-33.91L160.412,133.405z"/>
	<polygon fill="#40213D" points="154.787,180.797 170.197,176.124 160.412,133.405 137.039,140.808 	"/>
	<polygon fill="#7F607C" points="137.039,140.808 125.247,137.805 146.834,179.781 154.787,180.797 	"/>
	<polygon fill="#381935" points="141.897,112.468 125.247,137.805 137.039,140.808 	"/>
	<polygon fill="#2D0E2A" points="160.412,133.405 141.897,112.468 137.039,140.808 	"/>
	<polygon fill="#11000E" points="170.505,124.396 141.897,112.468 160.412,133.405 	"/>
	<path fill="#5D3E5A" d="M170.197,176.124l-3.076,11.113l9.146-13.872c0-0.537,0-1.078,0-1.621L170.197,176.124z"/>
	<polygon fill="#563753" points="146.834,179.781 167.121,187.237 154.787,180.797 	"/>
	<polygon fill="#563753" points="154.787,180.797 167.121,187.237 170.197,176.124 	"/>
</g>
</svg>
