<?xml version="1.0" encoding="utf-8"?>
<!-- Generator: Adobe Illustrator 16.0.0, SVG Export Plug-In . SVG Version: 6.00 Build 0)  -->
<!DOCTYPE svg PUBLIC "-//W3C//DTD SVG 1.1//EN" "http://www.w3.org/Graphics/SVG/1.1/DTD/svg11.dtd">
<svg version="1.1" id="图层_1" xmlns="http://www.w3.org/2000/svg" xmlns:xlink="http://www.w3.org/1999/xlink" x="0px" y="0px"
	 width="300px" height="300px" viewBox="0 0 300 300" enable-background="new 0 0 300 300" xml:space="preserve">
<g>
	<polygon fill="#A98AA6" points="166.653,188.712 105.888,157.108 109.306,144.66 172.425,172.105 	"/>
	<polygon fill="#795A76" points="204.925,166.563 166.653,188.712 172.425,172.105 	"/>
	<polygon fill="#82637F" points="184.31,139.728 172.425,172.105 205.516,166.19 	"/>
	<polygon fill="#563753" points="189.622,124.03 184.31,139.728 205.071,166.469 	"/>
	<polygon fill="#7A5B77" points="117.469,121.605 184.31,139.728 189.622,124.03 122.225,109.979 	"/>
	<polygon fill="#977894" points="172.425,172.105 109.306,144.66 117.469,121.605 184.31,139.728 	"/>
	<polygon fill="#977894" points="94.965,126.928 117.469,121.605 122.225,109.979 	"/>
	<polygon fill="#9D7C96" points="105.888,157.108 109.306,144.66 94.965,126.928 	"/>
	<polygon fill="#A384A0" points="117.469,121.605 94.965,126.928 109.306,144.66 	"/>
</g>
</svg>
