<?xml version="1.0" encoding="utf-8"?>
<!-- Generator: Adobe Illustrator 16.0.0, SVG Export Plug-In . SVG Version: 6.00 Build 0)  -->
<!DOCTYPE svg PUBLIC "-//W3C//DTD SVG 1.1//EN" "http://www.w3.org/Graphics/SVG/1.1/DTD/svg11.dtd">
<svg version="1.1" id="图层_1" xmlns="http://www.w3.org/2000/svg" xmlns:xlink="http://www.w3.org/1999/xlink" x="0px" y="0px"
	 width="500px" height="500px" viewBox="0 0 500 500" enable-background="new 0 0 500 500" xml:space="preserve">
<path fill="none" stroke="#FFFFFF" stroke-width="2.8" stroke-miterlimit="10" d="M337.255,109.907h41.115
	c31.994,0,57.932,25.938,57.932,57.934l0,0v8.143"/>
<path fill="none" stroke="#FFFFFF" stroke-width="2.8" stroke-miterlimit="10" d="M323.886,375.82h57.098
	c13.959,0,25.279-11.319,25.279-25.282l0,0c0-13.963-11.32-25.281-25.279-25.281h-5.85"/>
<path fill="none" stroke="#FFFFFF" stroke-width="2.8" stroke-miterlimit="10" d="M162.845,109.907h-41.113
	c-31.994,0-57.93,25.938-57.93,57.934l0,0v8.143"/>
<path fill="none" stroke="#FFFFFF" stroke-width="2.8" stroke-miterlimit="10" d="M180.532,166.89
	c25.693,0,36.125-11.525,36.125-28.41s-11.164-28.563-36.125-28.563c-24.965,0-48.914,0-66.145,0
	c-17.234,0-23.879-14.754-23.879-23.877c0-9.127,8.074-23.545,26.154-23.545c18.072,0,45.119,0,68.611,0"/>
<path fill="none" stroke="#FFFFFF" stroke-width="2.8" stroke-miterlimit="10" d="M142.854,163.952
	c-13.967,0-25.287,11.318-25.287,25.281l0,0c0,13.963,11.32,25.283,25.287,25.283h47.299"/>
<path fill="none" stroke="#FFFFFF" stroke-width="2.8" stroke-miterlimit="10" d="M190.153,274.691
	c13.967,0,25.285,11.317,25.285,25.283l0,0c0,13.961-11.318,25.28-25.285,25.28h-72.586"/>
<path fill="none" stroke="#FFFFFF" stroke-width="2.8" stroke-miterlimit="10" d="M129.536,62.327
	c0-30.357,24.611-54.967,54.967-54.967l0,0c30.357,0,54.967,24.609,54.967,54.967v387.717"/>
<path fill="none" stroke="#FFFFFF" stroke-width="2.8" stroke-miterlimit="10" d="M124.968,325.257L124.968,325.257
	c-38.209,0-69.184-30.975-69.184-69.187l0,0"/>
<path fill="none" stroke="#FFFFFF" stroke-width="2.8" stroke-miterlimit="10" d="M239.47,242.886L239.47,242.886
	c0-15.668-12.705-28.369-28.375-28.369h-53.377"/>
<path fill="none" stroke="#FFFFFF" stroke-width="2.8" stroke-miterlimit="10" d="M191.909,424.804h-39.301
	c-13.529,0-24.492-10.967-24.492-24.489l0,0c0-13.526,10.963-24.492,24.492-24.492"/>
<path fill="none" stroke="#FFFFFF" stroke-width="2.8" stroke-miterlimit="10" d="M165.036,424.804h39.301
	c13.527,0,24.492-10.967,24.492-24.489l0,0"/>
<path fill="none" stroke="#FFFFFF" stroke-width="2.8" stroke-miterlimit="10" d="M140.774,266.825H89.222
	c-27.055,0-48.982-21.93-48.982-48.98l0,0c0-27.051,21.928-48.98,48.982-48.98h15.576"/>
<path fill="none" stroke="#FFFFFF" stroke-width="2.8" stroke-miterlimit="10" d="M151.354,375.82h-32.232
	c-13.963,0-25.283-11.319-25.283-25.282l0,0c0-13.963,11.32-25.281,25.283-25.281h5.846"/>
<path fill="none" stroke="#FFFFFF" stroke-width="2.8" stroke-miterlimit="10" d="M283.443,138.479
	c0-16.885,11.166-28.563,36.128-28.563c24.963,0,48.912,0,66.141,0c17.236,0,23.883-14.754,23.883-23.877
	c0-9.127-8.076-23.545-26.154-23.545c-18.072,0-45.119,0-68.611,0"/>
<path fill="none" stroke="#FFFFFF" stroke-width="2.8" stroke-miterlimit="10" d="M357.249,163.952
	c13.967,0,25.285,11.318,25.285,25.281l0,0c0,13.963-11.318,25.283-25.285,25.283H309.95"/>
<path fill="none" stroke="#FFFFFF" stroke-width="2.8" stroke-miterlimit="10" d="M309.95,274.691
	c-13.968,0-25.287,11.317-25.287,25.283l0,0c0,13.961,11.319,25.28,25.287,25.28h57.153"/>
<path fill="none" stroke="#FFFFFF" stroke-width="2.8" stroke-miterlimit="10" d="M370.567,62.327
	c0-30.357-24.611-54.967-54.971-54.967l0,0c-30.355,0-54.965,24.609-54.965,54.967v430.117"/>
<path fill="none" stroke="#FFFFFF" stroke-width="2.8" stroke-miterlimit="10" d="M308.642,325.257h66.492
	c38.211,0,69.186-30.975,69.186-69.187l0,0"/>
<path fill="none" stroke="#FFFFFF" stroke-width="2.8" stroke-miterlimit="10" d="M260.634,242.886L260.634,242.886
	c0-15.668,12.703-28.369,28.373-28.369h53.375"/>
<path fill="none" stroke="#FFFFFF" stroke-width="2.8" stroke-miterlimit="10" d="M286.318,424.804h39.302
	c13.527,0,24.49-10.967,24.49-24.489l0,0c0-13.526-10.964-24.492-24.49-24.492"/>
<path fill="none" stroke="#FFFFFF" stroke-width="2.8" stroke-miterlimit="10" d="M359.327,266.825h51.553
	c27.055,0,48.984-21.93,48.984-48.98l0,0c0-27.051-21.932-48.98-48.984-48.98h-15.576"/>
<line fill="none" stroke="#FFFFFF" stroke-width="2.8" stroke-miterlimit="10" x1="55.788" y1="256.546" x2="55.788" y2="253.639"/>
<line fill="none" stroke="#FFFFFF" stroke-width="2.8" stroke-miterlimit="10" x1="444.317" y1="256.07" x2="444.317" y2="254.038"/>
</svg>
