<?xml version="1.0" encoding="utf-8"?>
<!-- Generator: Adobe Illustrator 16.0.0, SVG Export Plug-In . SVG Version: 6.00 Build 0)  -->
<!DOCTYPE svg PUBLIC "-//W3C//DTD SVG 1.1//EN" "http://www.w3.org/Graphics/SVG/1.1/DTD/svg11.dtd">
<svg version="1.1" id="图层_1" xmlns="http://www.w3.org/2000/svg" xmlns:xlink="http://www.w3.org/1999/xlink" x="0px" y="0px"
	 width="300px" height="300px" viewBox="0 0 300 300" enable-background="new 0 0 300 300" xml:space="preserve">
<g>
	<polygon fill="#1F001C" points="169.967,178.102 151.506,158.346 167.965,148.176 	"/>
	<polygon fill="#8A6B87" points="133.063,147.834 148.859,136.037 151.506,158.346 	"/>
	<polygon fill="#70516D" points="130.854,121.135 160.855,130.339 148.859,136.037 	"/>
	<polygon fill="#8A6B87" points="128.82,152.985 130.854,121.135 133.063,147.834 	"/>
	<polygon fill="#997A96" points="139.557,168.166 133.063,147.834 128.82,152.985 	"/>
	<polygon fill="#92738F" points="151.506,158.346 133.063,147.834 139.557,168.166 	"/>
	<polygon fill="#280925" points="148.859,136.037 151.506,158.346 167.965,148.176 	"/>
	<polygon fill="#270824" points="167.965,148.176 148.859,136.037 160.855,130.339 	"/>
	<polygon fill="#42233F" points="169.967,178.102 151.506,158.346 139.557,168.166 	"/>
	<polygon fill="#0C000A" points="171.336,148.22 169.967,178.102 167.965,148.176 	"/>
	<polygon points="160.855,130.339 171.336,148.22 167.965,148.176 	"/>
	<polygon fill="#92738F" points="133.063,147.834 148.859,136.037 130.854,121.135 	"/>
</g>
</svg>
